<?xml version="1.0" encoding="UTF-8"?>
<svg id="Layer_1" data-name="Layer 1" xmlns="http://www.w3.org/2000/svg" viewBox="0 0 254.99 131.62">
  <path d="M198.11,56.95c2.39,2.39,3.58,5.26,3.58,8.63s-1.22,6.39-3.66,8.76c-2.37,2.3-5.22,3.45-8.55,3.45s-6.33-1.18-8.68-3.53c-2.35-2.35-3.53-5.25-3.53-8.68s1.27-6.53,3.81-8.89c2.39-2.21,5.18-3.31,8.4-3.31s6.24,1.19,8.63,3.58ZM189.48,55.46c-2.81,0-5.2,1.02-7.17,3.05-1.94,1.99-2.92,4.35-2.92,7.07s.99,5.23,2.96,7.21c1.97,1.98,4.34,2.96,7.12,2.96s5.14-.99,7.11-2.98c1.97-2,2.95-4.39,2.95-7.19s-.98-5.07-2.93-7.07c-1.98-2.03-4.35-3.05-7.12-3.05ZM187.68,67.59v4.79h-3.54v-13.53c.84,0,2.1,0,3.77,0,1.67,0,2.6.01,2.79.02,1.07.08,1.96.31,2.67.7,1.2.66,1.81,1.74,1.81,3.23,0,1.14-.32,1.96-.95,2.47-.64.51-1.42.81-2.34.91.85.18,1.49.44,1.92.78.8.64,1.19,1.65,1.19,3.03v1.21c0,.13,0,.27.02.4.02.13.05.27.09.4l.12.38h-3.38c-.11-.43-.18-1.05-.22-1.87-.03-.82-.11-1.37-.22-1.66-.18-.47-.51-.81-.99-.99-.26-.11-.67-.18-1.21-.22l-.78-.05h-.75ZM189.05,65.15c.83,0,1.47-.17,1.94-.5.46-.33.7-.87.7-1.61s-.36-1.25-1.09-1.54c-.49-.19-1.17-.28-2.05-.28h-.86v3.93h1.37Z"/>
  <path d="M189.4,0c-28.78,0-53.29,18.63-62.1,44.47C118.36,18.95,94.06.64,65.49.64,29.32.64,0,29.96,0,66.13s29.32,65.49,65.49,65.49c28.78,0,53.22-18.56,62.01-44.37,8.97,25.55,33.33,43.93,61.91,43.93,36.16,0,65.59-29.42,65.59-65.59S225.57,0,189.4,0ZM81.55,89.11c-3.68,3.18-8.87,4.76-15.58,4.76s-12.24-1.56-16.17-4.69c-3.93-3.13-5.89-7.43-5.89-12.9h10.49c.33,2.4.99,4.2,1.96,5.39,1.78,2.17,4.84,3.25,9.17,3.25,2.59,0,4.7-.29,6.32-.86,3.07-1.09,4.6-3.13,4.6-6.1,0-1.74-.76-3.08-2.28-4.03-1.52-.93-3.91-1.75-7.17-2.46l-5.57-1.25c-5.47-1.24-9.26-2.58-11.35-4.03-3.55-2.43-5.32-6.22-5.32-11.38,0-4.71,1.71-8.62,5.14-11.74,3.43-3.12,8.46-4.68,15.1-4.68,5.54,0,10.27,1.47,14.19,4.41,3.91,2.94,5.97,7.2,6.16,12.79h-10.56c-.19-3.16-1.57-5.41-4.14-6.75-1.71-.88-3.84-1.32-6.39-1.32-2.83,0-5.09.57-6.78,1.71-1.69,1.14-2.53,2.74-2.53,4.78,0,1.88.83,3.28,2.5,4.21,1.07.62,3.35,1.34,6.85,2.18l9.07,2.18c3.97.95,6.97,2.23,8.99,3.82,3.14,2.47,4.71,6.06,4.71,10.74s-1.84,8.8-5.51,11.97ZM189.4,119.53c-29.74,0-53.94-24.2-53.94-53.94s24.2-53.94,53.94-53.94,53.94,24.2,53.94,53.94-24.2,53.94-53.94,53.94Z"/>
</svg>