<?xml version="1.0" encoding="UTF-8"?>
<svg id="Layer_1" data-name="Layer 1" xmlns="http://www.w3.org/2000/svg" viewBox="0 0 282.16 209.51">
  <defs>
    <style>
      .cls-1 {
        fill: #fff;
      }
    </style>
  </defs>
  <g>
    <path d="M17.67,43.23c1.86,0,3.37-.2,4.53-.61,2.2-.78,3.3-2.24,3.3-4.37,0-1.24-.55-2.21-1.64-2.89-1.09-.67-2.8-1.25-5.14-1.76l-3.99-.89c-3.92-.89-6.63-1.85-8.13-2.89-2.54-1.74-3.81-4.46-3.81-8.16,0-3.38,1.23-6.18,3.68-8.41,2.45-2.23,6.06-3.35,10.81-3.35,3.97,0,7.36,1.05,10.16,3.16,2.8,2.11,4.27,5.16,4.41,9.17h-7.57c-.14-2.27-1.12-3.88-2.96-4.83-1.23-.63-2.75-.95-4.58-.95-2.03,0-3.65.41-4.86,1.23-1.21.82-1.82,1.96-1.82,3.43,0,1.35.6,2.35,1.79,3.02.77.44,2.4.96,4.91,1.56l6.49,1.56c2.85.68,4.99,1.59,6.44,2.74,2.25,1.77,3.38,4.34,3.38,7.7s-1.32,6.3-3.95,8.58c-2.63,2.28-6.35,3.41-11.16,3.41s-8.77-1.12-11.58-3.36-4.22-5.32-4.22-9.24h7.52c.24,1.72.71,3.01,1.41,3.86,1.28,1.55,3.47,2.33,6.57,2.33Z"/>
    <path d="M55.58,49.73c-5.39,0-9.5-1.47-12.35-4.4-3.82-3.6-5.73-8.78-5.73-15.54s1.91-12.08,5.73-15.54c2.85-2.93,6.96-4.4,12.35-4.4s9.5,1.47,12.35,4.4c3.8,3.46,5.7,8.64,5.7,15.54s-1.9,11.95-5.7,15.54c-2.85,2.93-6.96,4.4-12.35,4.4ZM63.02,39.6c1.82-2.3,2.74-5.57,2.74-9.82s-.92-7.5-2.75-9.8-4.31-3.46-7.43-3.46-5.61,1.15-7.47,3.45-2.79,5.57-2.79,9.82.93,7.52,2.79,9.82c1.86,2.3,4.35,3.45,7.47,3.45s5.6-1.15,7.44-3.45Z"/>
    <path d="M101.94,34.16V10.99h8v23.16c0,4.01-.62,7.12-1.87,9.36-2.32,4.09-6.74,6.14-13.27,6.14s-10.96-2.05-13.29-6.14c-1.24-2.23-1.87-5.35-1.87-9.36V10.99h8v23.16c0,2.59.31,4.48.92,5.68.95,2.11,3.03,3.17,6.24,3.17s5.26-1.06,6.21-3.17c.61-1.19.92-3.08.92-5.68Z"/>
    <path d="M117.45,10.99h7.88v30.91h18.66v6.78h-26.54V10.99Z"/>
    <path d="M176.16,17.67h-18.89v8.67h16.54v6.54h-16.54v15.8h-7.82V11.04h26.72v6.62Z"/>
    <path d="M203.72,34.16V10.99h8v23.16c0,4.01-.62,7.12-1.87,9.36-2.32,4.09-6.74,6.14-13.27,6.14s-10.96-2.05-13.29-6.14c-1.24-2.23-1.87-5.35-1.87-9.36V10.99h8v23.16c0,2.59.31,4.48.92,5.68.95,2.11,3.03,3.17,6.24,3.17s5.26-1.06,6.21-3.17c.61-1.19.92-3.08.92-5.68Z"/>
    <path d="M219.24,10.99h7.88v30.91h18.66v6.78h-26.54V10.99Z"/>
    <path d="M21.2,104.3H4.12v-37.69h18.31c4.62.07,7.89,1.41,9.82,4.01,1.16,1.6,1.74,3.52,1.74,5.75s-.58,4.15-1.74,5.55c-.65.78-1.6,1.5-2.86,2.15,1.93.7,3.38,1.81,4.36,3.32.98,1.52,1.47,3.36,1.47,5.52s-.56,4.24-1.69,6.01c-.72,1.18-1.61,2.17-2.68,2.97-1.21.92-2.64,1.55-4.28,1.89-1.64.34-3.43.51-5.36.51ZM24.93,80.53c1.02-.61,1.53-1.71,1.53-3.3,0-1.75-.68-2.91-2.05-3.48-1.18-.39-2.68-.59-4.5-.59h-8.28v8.31h9.25c1.65,0,3-.32,4.04-.95ZM21.02,87.71h-9.38v10.05h9.25c1.65,0,2.94-.22,3.86-.67,1.67-.82,2.5-2.39,2.5-4.7,0-1.96-.81-3.31-2.43-4.04-.9-.41-2.17-.62-3.81-.64Z"/>
    <path d="M57.81,89.53h-8.13v14.78h-7.7v-37.69h18.49c2.64.05,4.67.38,6.1.97,1.42.6,2.63,1.47,3.62,2.63.82.95,1.47,2.01,1.94,3.17s.72,2.48.72,3.96c0,1.79-.45,3.55-1.35,5.28-.9,1.73-2.4,2.95-4.47,3.67,1.74.7,2.97,1.69,3.69,2.98.72,1.29,1.09,3.25,1.09,5.89v2.53c0,1.72.07,2.89.2,3.5.21.97.68,1.69,1.43,2.15v.95h-8.67c-.24-.83-.41-1.51-.51-2.02-.21-1.06-.32-2.14-.33-3.25l-.05-3.5c-.03-2.4-.47-4-1.32-4.81-.84-.8-2.42-1.2-4.74-1.2ZM62.59,82.67c1.57-.72,2.35-2.13,2.35-4.24,0-2.28-.76-3.82-2.28-4.6-.85-.44-2.13-.67-3.83-.67h-9.15v10.12h8.92c1.77,0,3.1-.21,3.99-.61Z"/>
    <path d="M101.68,96.56h-13.88l-2.61,7.75h-8.23l13.45-37.69h8.9l13.35,37.69h-8.54l-2.43-7.75ZM99.48,90.06l-4.7-14.83-4.86,14.83h9.56Z"/>
    <path d="M147.9,104.3h-7.87l-15.39-26.77v26.77h-7.34v-37.69h8.26l15.01,26.31v-26.31h7.34v37.69Z"/>
    <path d="M171.48,104.3h-16.24v-37.69h16.24c2.33.03,4.28.31,5.83.82,2.64.87,4.78,2.46,6.42,4.78,1.31,1.88,2.21,3.9,2.68,6.08s.72,4.26.72,6.24c0,5.01-1.01,9.25-3.02,12.73-2.73,4.69-6.94,7.03-12.63,7.03ZM177.33,76.23c-1.21-2.04-3.6-3.07-7.18-3.07h-7.26v24.6h7.26c3.72,0,6.31-1.83,7.77-5.5.8-2.01,1.2-4.41,1.2-7.18,0-3.84-.6-6.78-1.79-8.85Z"/>
    <path d="M192.44,66.62h7.82v37.69h-7.82v-37.69Z"/>
    <path d="M238.08,104.3h-7.87l-15.39-26.77v26.77h-7.34v-37.69h8.26l15.01,26.31v-26.31h7.34v37.69Z"/>
    <path d="M268.53,103.38c-2.08,1.28-4.64,1.92-7.67,1.92-4.99,0-9.08-1.73-12.27-5.19-3.32-3.48-4.99-8.23-4.99-14.27s1.68-10.99,5.04-14.68c3.36-3.68,7.8-5.52,13.32-5.52,4.79,0,8.64,1.21,11.54,3.64s4.57,5.46,5,9.09h-7.75c-.6-2.57-2.05-4.37-4.37-5.39-1.29-.56-2.74-.84-4.32-.84-3.03,0-5.53,1.15-7.48,3.44-1.95,2.29-2.93,5.74-2.93,10.34s1.06,7.92,3.17,9.84c2.11,1.93,4.52,2.89,7.21,2.89s4.81-.76,6.49-2.29,2.73-3.52,3.12-6h-8.72v-6.29h15.7v20.22h-5.22l-.79-4.7c-1.52,1.79-2.88,3.05-4.09,3.78Z"/>
  </g>
  <path d="M57.15,169.8c-8.68,0-16.08,5.62-18.74,13.42-2.7-7.7-10.03-13.22-18.65-13.22-10.91,0-19.76,8.85-19.76,19.76s8.85,19.76,19.76,19.76c8.68,0,16.06-5.6,18.71-13.39,2.71,7.71,10.06,13.25,18.68,13.25,10.91,0,19.79-8.88,19.79-19.79s-8.88-19.79-19.79-19.79Z"/>
  <path class="cls-1" d="M19.78,195.42c.78,0,1.42-.09,1.91-.26.93-.33,1.39-.94,1.39-1.84,0-.52-.23-.93-.69-1.22-.46-.28-1.18-.53-2.16-.74l-1.68-.38c-1.65-.37-2.79-.78-3.42-1.22-1.07-.73-1.6-1.88-1.6-3.44,0-1.42.52-2.6,1.55-3.54,1.03-.94,2.55-1.41,4.56-1.41,1.67,0,3.1.44,4.28,1.33,1.18.89,1.8,2.17,1.86,3.86h-3.19c-.06-.95-.47-1.63-1.25-2.04-.52-.27-1.16-.4-1.93-.4-.85,0-1.54.17-2.05.52-.51.34-.76.83-.76,1.44,0,.57.25.99.75,1.27.32.19,1.01.41,2.07.66l2.74.66c1.2.29,2.1.67,2.71,1.15.95.75,1.42,1.83,1.42,3.24s-.55,2.65-1.66,3.61-2.68,1.44-4.7,1.44-3.69-.47-4.88-1.42c-1.18-.94-1.78-2.24-1.78-3.89h3.17c.1.73.3,1.27.59,1.63.54.65,1.46.98,2.77.98Z"/>
  <path class="cls-1" d="M60.21,187.51c.43-.26.65-.72.65-1.39,0-.74-.29-1.23-.86-1.46-.5-.17-1.13-.25-1.9-.25h-3.49v3.5h3.9c.7,0,1.26-.13,1.7-.4Z"/>
  <path class="cls-1" d="M60.17,190.8c-.38-.17-.92-.26-1.6-.27h-3.95v4.23h3.9c.7,0,1.24-.09,1.63-.28.7-.34,1.06-1.01,1.06-1.98,0-.83-.34-1.39-1.02-1.7Z"/>
  <path class="cls-1" d="M57.15,173.31c-8.98,0-16.28,7.3-16.28,16.28s7.3,16.28,16.28,16.28,16.28-7.3,16.28-16.28-7.3-16.28-16.28-16.28ZM63.83,195.26c-.3.5-.68.91-1.13,1.25-.51.39-1.11.65-1.8.8-.69.14-1.44.22-2.26.22h-7.19v-15.87h7.71c1.95.03,3.32.59,4.14,1.69.49.67.73,1.48.73,2.42s-.24,1.75-.73,2.34c-.27.33-.67.63-1.21.9.81.29,1.42.76,1.84,1.4.41.64.62,1.41.62,2.33s-.24,1.78-.71,2.53Z"/>
  <path d="M266.89,3.17c2.12,2.12,3.17,4.67,3.17,7.65s-1.08,5.67-3.25,7.77c-2.11,2.04-4.63,3.06-7.58,3.06s-5.61-1.04-7.7-3.13c-2.09-2.09-3.13-4.65-3.13-7.7s1.13-5.79,3.38-7.89c2.12-1.96,4.6-2.94,7.45-2.94s5.54,1.06,7.65,3.17ZM259.24,1.85c-2.49,0-4.61.9-6.36,2.7-1.72,1.76-2.59,3.85-2.59,6.27s.88,4.64,2.63,6.39c1.74,1.75,3.85,2.63,6.32,2.63s4.56-.88,6.3-2.64c1.74-1.77,2.61-3.9,2.61-6.38s-.87-4.5-2.6-6.27c-1.75-1.8-3.86-2.7-6.32-2.7ZM257.64,12.6v4.25h-3.14V4.85c.74,0,1.86,0,3.34,0,1.48,0,2.31.01,2.48.02.95.07,1.74.27,2.36.62,1.07.59,1.6,1.54,1.6,2.86,0,1.01-.28,1.74-.84,2.19-.56.45-1.26.72-2.08.81.75.16,1.32.39,1.7.69.71.57,1.06,1.46,1.06,2.69v1.07c0,.12,0,.24.02.35.01.12.04.24.08.35l.1.34h-3c-.1-.38-.16-.94-.19-1.66-.03-.72-.09-1.21-.19-1.47-.16-.42-.45-.71-.88-.88-.23-.1-.59-.16-1.07-.19l-.69-.04h-.66ZM258.86,10.44c.73,0,1.31-.15,1.72-.44.41-.29.62-.77.62-1.42s-.32-1.11-.97-1.37c-.43-.17-1.04-.25-1.82-.25h-.76v3.48h1.22Z"/>
</svg>