<?xml version="1.0" encoding="UTF-8"?>
<svg id="Layer_1" data-name="Layer 1" xmlns="http://www.w3.org/2000/svg" viewBox="0 0 524.34 38.33">
  <path d="M0,28.53l8.35-3.29c.61,1.88,1.6,3.28,2.96,4.17,1.36.9,3.07,1.35,5.13,1.35,1.71,0,3.05-.32,4.01-.95.96-.63,1.45-1.48,1.45-2.53,0-.7-.19-1.29-.56-1.78-.37-.48-1.02-.89-1.94-1.22-.92-.33-2.19-.56-3.81-.69-5.26-.44-9.04-1.53-11.34-3.29-2.3-1.75-3.45-4.19-3.45-7.3,0-2.19.59-4.15,1.78-5.88,1.18-1.73,2.89-3.09,5.13-4.08,2.24-.99,4.8-1.48,7.69-1.48,4.38,0,7.87.94,10.45,2.83,2.58,1.89,4.36,4.49,5.33,7.82l-8.88,1.97c-.44-1.71-1.24-2.98-2.4-3.81-1.16-.83-2.64-1.25-4.44-1.25-1.58,0-2.82.34-3.71,1.02-.9.68-1.35,1.54-1.35,2.6,0,.66.17,1.19.53,1.61.35.42.97.76,1.87,1.02.9.26,2.2.46,3.91.59,5.39.44,9.21,1.54,11.44,3.32,2.24,1.77,3.35,4.37,3.35,7.79s-1.36,6.26-4.08,8.25c-2.72,2-6.4,2.99-11.04,2.99-8.59,0-14.05-3.26-16.37-9.8Z"/>
  <path d="M45.07,36.23c-2.65-1.4-4.76-3.48-6.31-6.25-1.56-2.76-2.33-6.09-2.33-9.99s.78-7.23,2.33-9.99c1.56-2.76,3.66-4.85,6.31-6.28,2.65-1.42,5.62-2.14,8.91-2.14s6.26.71,8.91,2.14c2.65,1.42,4.74,3.52,6.28,6.28,1.53,2.76,2.3,6.09,2.3,9.99s-.77,7.23-2.3,9.99c-1.54,2.76-3.63,4.84-6.28,6.25-2.65,1.4-5.62,2.1-8.91,2.1s-6.26-.7-8.91-2.1ZM59.53,27.19c1.34-1.6,2.01-4,2.01-7.2s-.66-5.61-1.97-7.23c-1.32-1.62-3.18-2.43-5.59-2.43s-4.27.81-5.59,2.43c-1.31,1.62-1.97,4.03-1.97,7.23s.66,5.6,1.97,7.2c1.32,1.6,3.18,2.4,5.59,2.4s4.22-.8,5.56-2.4Z"/>
  <path d="M88.17.72v36.75h-9.8V.72h9.8ZM104.21.72v8.35h-20.91V.72h20.91ZM102.5,16.57v8.09h-19.2v-8.09h19.2Z"/>
  <path d="M120.38.72v36.75h-9.8V.72h9.8Z"/>
  <path d="M164.9,37.48h-10.06l-8.22-22.03c-.53-1.36-1.11-3.22-1.74-5.59-.64-2.37-1.17-4.47-1.61-6.31h2.89c-.39,1.89-.91,4.01-1.54,6.38-.64,2.37-1.22,4.21-1.74,5.52l-8.15,22.03h-9.73L139.19.72h11.51l14.2,36.75ZM155.43,23.34v7.43h-21.1v-7.43h21.1Z"/>
  <path d="M188.33,35.9c-2.87-1.58-5.04-3.8-6.51-6.67-1.47-2.87-2.2-6.26-2.2-10.16s.74-7.22,2.24-10.09c1.49-2.87,3.66-5.08,6.51-6.64,2.85-1.56,6.29-2.33,10.32-2.33,4.95,0,9,1.18,12.13,3.55,3.13,2.37,5.12,5.83,5.95,10.39l-9.07,1.91c-.57-2.5-1.59-4.36-3.06-5.59-1.47-1.23-3.39-1.84-5.75-1.84-2.85,0-5.06.91-6.64,2.73-1.58,1.82-2.37,4.46-2.37,7.92s.79,6.17,2.37,7.99c1.58,1.82,3.79,2.73,6.64,2.73,2.32,0,4.22-.61,5.69-1.84,1.47-1.23,2.51-3.09,3.12-5.59l9.07,1.91c-.88,4.52-2.87,7.98-5.98,10.39-3.11,2.41-7.14,3.62-12.1,3.62-4.03,0-7.48-.79-10.36-2.37Z"/>
  <path d="M233.27.72v36.75h-9.8V.72h9.8Z"/>
  <path d="M277.78,37.48h-10.06l-8.22-22.03c-.53-1.36-1.11-3.22-1.74-5.59-.64-2.37-1.17-4.47-1.61-6.31h2.89c-.39,1.89-.91,4.01-1.54,6.38-.64,2.37-1.22,4.21-1.74,5.52l-8.15,22.03h-9.73L252.08.72h11.51l14.2,36.75ZM268.32,23.34v7.43h-21.1v-7.43h21.1Z"/>
  <path d="M282.45.72h9.8v36.75h-9.8V.72ZM288.04,15.65h10.72c1.88,0,3.21-.34,3.98-1.02.77-.68,1.15-1.65,1.15-2.93s-.39-2.19-1.18-2.89c-.79-.7-2.1-1.05-3.95-1.05h-10.72V.72h11.7c5,0,8.58.91,10.75,2.73,2.17,1.82,3.25,4.31,3.25,7.46,0,2.85-1.1,5.05-3.29,6.61-2.19,1.56-5.54,2.33-10.06,2.33h-12.36v-4.21ZM289.16,30.44h10.59c1.88,0,3.24-.35,4.08-1.05.83-.7,1.25-1.71,1.25-3.02s-.41-2.32-1.22-3.02c-.81-.7-2.18-1.05-4.11-1.05h-10.59v-4.21h12.56c4.38,0,7.69.78,9.93,2.33,2.24,1.56,3.35,3.78,3.35,6.67,0,3.24-1.11,5.79-3.32,7.63-2.21,1.84-5.8,2.76-10.75,2.76h-11.77v-7.04Z"/>
  <path d="M358,37.48h-10.06l-8.22-22.03c-.53-1.36-1.11-3.22-1.74-5.59-.64-2.37-1.17-4.47-1.61-6.31h2.89c-.39,1.89-.91,4.01-1.54,6.38-.64,2.37-1.22,4.21-1.74,5.52l-8.15,22.03h-9.73L332.29.72h11.51l14.2,36.75ZM348.53,23.34v7.43h-21.1v-7.43h21.1Z"/>
  <path d="M386.86.72v8.35h-30.84V.72h30.84ZM376.34.72v36.75h-9.8V.72h9.8Z"/>
  <path d="M420.19.72v8.35h-30.84V.72h30.84ZM409.67.72v36.75h-9.8V.72h9.8Z"/>
  <path d="M431.24,35.9c-2.94-1.58-5.15-3.79-6.64-6.64-1.49-2.85-2.24-6.22-2.24-10.12s.74-7.34,2.24-10.19c1.49-2.85,3.7-5.05,6.64-6.61,2.94-1.56,6.51-2.33,10.72-2.33s7.77.78,10.68,2.33c2.92,1.56,5.13,3.76,6.64,6.61,1.51,2.85,2.27,6.25,2.27,10.19s-.76,7.28-2.27,10.12c-1.51,2.85-3.73,5.06-6.64,6.64-2.92,1.58-6.48,2.37-10.68,2.37s-7.78-.79-10.72-2.37ZM448.93,27.06c1.62-1.82,2.43-4.46,2.43-7.92s-.81-6.11-2.43-7.96c-1.62-1.84-3.95-2.76-6.97-2.76s-5.35.92-6.97,2.76c-1.62,1.84-2.43,4.49-2.43,7.96s.81,6.05,2.43,7.89c1.62,1.84,3.95,2.76,6.97,2.76s5.35-.91,6.97-2.73Z"/>
  <path d="M468.98.72h7.82c.48,5.74.72,10.52.72,14.33v22.42h-8.55V.72ZM475.98,8.91c-1.38-3-2.58-5.73-3.58-8.19h8.68l13.81,20.65c1.49,2.76,3.37,6.86,5.65,12.29l1.58,3.81h-8.09l-14.86-22.42c-.75-1.1-1.81-3.15-3.19-6.15ZM496.26,21.11V.72h8.55v36.75h-7.43c-.75-7.1-1.12-12.56-1.12-16.37Z"/>
  <path d="M524.34.72v36.75h-9.8V.72h9.8Z"/>
</svg>