<?xml version="1.0" encoding="UTF-8"?>
<svg id="Layer_1" data-name="Layer 1" xmlns="http://www.w3.org/2000/svg" viewBox="0 0 599.35 61.33">
  <defs>
    <style>
      .cls-1 {
        fill: #fff;
      }
    </style>
  </defs>
  <path d="M68.98,1.75c-10.48,0-19.41,6.79-22.61,16.19-3.26-9.29-12.11-15.96-22.51-15.96C10.68,1.98,0,12.66,0,25.83s10.68,23.85,23.85,23.85c10.48,0,19.38-6.76,22.58-16.16,3.27,9.31,12.14,16,22.55,16,13.17,0,23.89-10.71,23.89-23.89S82.15,1.75,68.98,1.75Z"/>
  <path class="cls-1" d="M23.87,32.67c.94,0,1.71-.1,2.3-.31,1.12-.4,1.68-1.14,1.68-2.22,0-.63-.28-1.12-.83-1.47-.55-.34-1.43-.64-2.61-.9l-2.03-.45c-1.99-.45-3.37-.94-4.13-1.47-1.29-.88-1.94-2.27-1.94-4.15,0-1.72.62-3.14,1.87-4.28,1.25-1.14,3.08-1.7,5.5-1.7,2.02,0,3.74.54,5.17,1.61,1.43,1.07,2.17,2.62,2.24,4.66h-3.85c-.07-1.15-.57-1.97-1.51-2.46-.62-.32-1.4-.48-2.33-.48-1.03,0-1.85.21-2.47.62-.62.42-.92,1-.92,1.74,0,.68.3,1.2.91,1.53.39.23,1.22.49,2.5.79l3.3.79c1.45.35,2.54.81,3.28,1.39,1.14.9,1.72,2.21,1.72,3.91s-.67,3.2-2.01,4.36-3.23,1.74-5.67,1.74-4.46-.57-5.89-1.71c-1.43-1.14-2.14-2.71-2.14-4.7h3.82c.12.88.36,1.53.71,1.96.65.79,1.76,1.18,3.34,1.18Z"/>
  <path class="cls-1" d="M72.67,23.12c.52-.31.78-.87.78-1.68,0-.89-.35-1.48-1.04-1.77-.6-.2-1.36-.3-2.29-.3h-4.21v4.22h4.71c.84,0,1.53-.16,2.05-.48Z"/>
  <path class="cls-1" d="M72.62,27.1c-.46-.21-1.1-.32-1.94-.32h-4.77v5.11h4.71c.84,0,1.49-.11,1.96-.34.85-.42,1.27-1.21,1.27-2.39,0-1-.41-1.68-1.23-2.05Z"/>
  <path class="cls-1" d="M68.98,5.99c-10.83,0-19.65,8.81-19.65,19.65s8.81,19.65,19.65,19.65,19.65-8.81,19.65-19.65-8.81-19.65-19.65-19.65ZM77.04,32.48c-.36.6-.82,1.1-1.36,1.51-.62.47-1.34.79-2.18.96-.84.17-1.74.26-2.72.26h-8.68v-19.16h9.31c2.35.03,4.01.71,4.99,2.04.59.81.88,1.79.88,2.92s-.29,2.11-.88,2.82c-.33.4-.81.76-1.46,1.09.98.36,1.72.92,2.22,1.69.5.77.75,1.71.75,2.81s-.29,2.15-.86,3.05Z"/>
  <g>
    <path d="M133.68,35.1c1.59,0,2.88-.18,3.88-.53,1.88-.67,2.82-1.92,2.82-3.74,0-1.07-.47-1.89-1.4-2.47-.93-.57-2.4-1.07-4.4-1.51l-3.42-.77c-3.36-.76-5.68-1.58-6.96-2.47-2.17-1.49-3.26-3.82-3.26-6.98,0-2.89,1.05-5.29,3.15-7.2,2.1-1.91,5.19-2.87,9.26-2.87,3.4,0,6.3.9,8.7,2.7,2.4,1.8,3.66,4.42,3.78,7.85h-6.48c-.12-1.94-.96-3.32-2.54-4.14-1.05-.54-2.36-.81-3.92-.81-1.74,0-3.12.35-4.16,1.05s-1.55,1.68-1.55,2.93c0,1.15.51,2.01,1.53,2.58.66.38,2.06.82,4.2,1.34l5.56,1.34c2.44.58,4.28,1.37,5.52,2.34,1.93,1.52,2.89,3.71,2.89,6.59s-1.13,5.4-3.38,7.35c-2.26,1.95-5.44,2.92-9.56,2.92s-7.51-.96-9.92-2.88c-2.41-1.92-3.61-4.56-3.61-7.92h6.44c.2,1.47.61,2.58,1.2,3.31,1.09,1.33,2.97,1.99,5.63,1.99Z"/>
    <path d="M166.14,40.66c-4.61,0-8.14-1.25-10.58-3.77-3.27-3.08-4.9-7.52-4.9-13.31s1.63-10.35,4.9-13.31c2.44-2.51,5.96-3.77,10.58-3.77s8.14,1.26,10.58,3.77c3.25,2.96,4.88,7.4,4.88,13.31s-1.63,10.23-4.88,13.31c-2.44,2.51-5.96,3.77-10.58,3.77ZM172.52,31.99c1.56-1.97,2.34-4.77,2.34-8.41s-.79-6.42-2.35-8.4c-1.57-1.98-3.69-2.97-6.36-2.97s-4.8.99-6.39,2.96c-1.59,1.97-2.39,4.77-2.39,8.41s.79,6.44,2.39,8.41c1.59,1.97,3.72,2.96,6.39,2.96s4.79-.99,6.37-2.96Z"/>
    <path d="M205.84,27.33V7.49h6.85v19.84c0,3.43-.53,6.1-1.6,8.01-1.99,3.5-5.77,5.25-11.36,5.25s-9.39-1.75-11.39-5.25c-1.07-1.91-1.6-4.58-1.6-8.01V7.49h6.85v19.84c0,2.22.26,3.84.79,4.86.82,1.81,2.6,2.71,5.34,2.71s4.5-.91,5.32-2.71c.53-1.02.79-2.64.79-4.86Z"/>
    <path d="M219.13,7.49h6.74v26.47h15.98v5.8h-22.73V7.49Z"/>
    <path d="M269.4,13.21h-16.18v7.42h14.17v5.6h-14.17v13.53h-6.7V7.54h22.88v5.67Z"/>
    <path d="M293,27.33V7.49h6.85v19.84c0,3.43-.53,6.1-1.6,8.01-1.99,3.5-5.77,5.25-11.36,5.25s-9.39-1.75-11.39-5.25c-1.07-1.91-1.6-4.58-1.6-8.01V7.49h6.85v19.84c0,2.22.26,3.84.79,4.86.82,1.81,2.6,2.71,5.34,2.71s4.5-.91,5.32-2.71c.53-1.02.79-2.64.79-4.86Z"/>
    <path d="M306.29,7.49h6.74v26.47h15.98v5.8h-22.73V7.49Z"/>
    <path d="M360.09,39.76h-14.62V7.49h15.68c3.96.06,6.76,1.2,8.41,3.44.99,1.37,1.49,3.01,1.49,4.93s-.5,3.55-1.49,4.75c-.56.67-1.37,1.28-2.45,1.84,1.65.6,2.89,1.55,3.73,2.85s1.26,2.88,1.26,4.73-.48,3.63-1.44,5.15c-.61,1.01-1.38,1.85-2.3,2.54-1.04.79-2.26,1.33-3.67,1.62s-2.94.44-4.59.44ZM363.28,19.4c.88-.53,1.31-1.47,1.31-2.82,0-1.5-.58-2.5-1.75-2.98-1.01-.34-2.29-.5-3.85-.5h-7.09v7.12h7.93c1.42,0,2.57-.27,3.46-.81ZM359.93,25.56h-8.04v8.6h7.93c1.42,0,2.52-.19,3.31-.57,1.43-.7,2.15-2.04,2.15-4.03,0-1.68-.69-2.83-2.08-3.46-.77-.35-1.86-.53-3.26-.55Z"/>
    <path d="M391.44,27.11h-6.96v12.66h-6.59V7.49h15.83c2.26.04,4,.32,5.22.83,1.22.51,2.25,1.26,3.1,2.25.7.82,1.25,1.72,1.66,2.71.41.99.61,2.12.61,3.39,0,1.53-.39,3.04-1.16,4.52-.77,1.48-2.05,2.53-3.83,3.14,1.49.6,2.54,1.45,3.16,2.55s.93,2.78.93,5.05v2.17c0,1.47.06,2.47.18,3,.17.83.58,1.45,1.23,1.84v.81h-7.42c-.21-.71-.35-1.29-.44-1.73-.17-.91-.27-1.83-.28-2.78l-.04-3c-.03-2.06-.41-3.43-1.13-4.12s-2.08-1.03-4.06-1.03ZM395.53,21.24c1.34-.61,2.01-1.82,2.01-3.63,0-1.96-.65-3.27-1.95-3.94-.73-.38-1.82-.57-3.28-.57h-7.84v8.67h7.64c1.52,0,2.66-.18,3.42-.53Z"/>
    <path d="M429.01,33.13h-11.89l-2.23,6.63h-7.05l11.52-32.27h7.62l11.43,32.27h-7.31l-2.08-6.63ZM427.13,27.57l-4.03-12.7-4.16,12.7h8.19Z"/>
    <path d="M468.6,39.76h-6.74l-13.18-22.92v22.92h-6.28V7.49h7.07l12.85,22.53V7.49h6.28v32.27Z"/>
    <path d="M488.78,39.76h-13.9V7.49h13.9c2,.03,3.66.26,4.99.7,2.26.74,4.09,2.11,5.5,4.09,1.12,1.61,1.89,3.34,2.3,5.21.41,1.87.61,3.65.61,5.34,0,4.29-.86,7.93-2.58,10.9-2.34,4.01-5.94,6.02-10.82,6.02ZM493.8,15.72c-1.04-1.75-3.09-2.63-6.15-2.63h-6.22v21.06h6.22c3.18,0,5.4-1.57,6.66-4.71.69-1.72,1.03-3.77,1.03-6.15,0-3.28-.51-5.81-1.53-7.58Z"/>
    <path d="M506.74,7.49h6.7v32.27h-6.7V7.49Z"/>
    <path d="M545.82,39.76h-6.74l-13.18-22.92v22.92h-6.28V7.49h7.07l12.85,22.53V7.49h6.28v32.27Z"/>
    <path d="M571.89,38.98c-1.78,1.09-3.97,1.64-6.57,1.64-4.28,0-7.78-1.48-10.51-4.44-2.85-2.98-4.27-7.05-4.27-12.22s1.44-9.42,4.31-12.57c2.88-3.15,6.68-4.73,11.41-4.73,4.1,0,7.4,1.04,9.89,3.12,2.49,2.08,3.92,4.67,4.28,7.78h-6.63c-.51-2.2-1.76-3.74-3.74-4.62-1.11-.48-2.34-.72-3.7-.72-2.6,0-4.73.98-6.4,2.94-1.67,1.96-2.51,4.92-2.51,8.86s.91,6.78,2.71,8.43,3.87,2.47,6.17,2.47,4.12-.65,5.56-1.96c1.45-1.31,2.33-3.02,2.67-5.13h-7.47v-5.39h13.44v17.32h-4.47l-.68-4.03c-1.3,1.53-2.47,2.61-3.5,3.24Z"/>
  </g>
  <path d="M597.07,2.29c1.52,1.52,2.29,3.36,2.29,5.51s-.78,4.08-2.34,5.6c-1.52,1.47-3.34,2.2-5.46,2.2s-4.04-.75-5.54-2.25c-1.5-1.5-2.25-3.35-2.25-5.54s.81-4.17,2.43-5.68c1.52-1.41,3.31-2.12,5.36-2.12s3.99.76,5.51,2.29ZM591.56,1.33c-1.79,0-3.32.65-4.58,1.95-1.24,1.27-1.86,2.78-1.86,4.52s.63,3.34,1.89,4.6c1.26,1.26,2.77,1.89,4.55,1.89s3.28-.63,4.54-1.9c1.26-1.28,1.88-2.81,1.88-4.59s-.62-3.24-1.87-4.52c-1.26-1.3-2.78-1.95-4.55-1.95ZM590.4,9.08v3.06h-2.26V3.49c.54,0,1.34,0,2.41,0,1.07,0,1.66,0,1.78.02.68.05,1.25.2,1.7.44.77.42,1.15,1.11,1.15,2.06,0,.73-.2,1.25-.61,1.58-.41.32-.9.52-1.5.58.54.11.95.28,1.23.5.51.41.76,1.05.76,1.94v.77c0,.08,0,.17.02.25.01.08.03.17.06.25l.07.24h-2.16c-.07-.28-.12-.67-.14-1.2-.02-.52-.07-.87-.14-1.06-.11-.3-.32-.51-.63-.63-.17-.07-.43-.12-.77-.14l-.5-.03h-.48ZM591.28,7.52c.53,0,.94-.11,1.24-.32.3-.21.44-.55.44-1.03s-.23-.8-.7-.98c-.31-.12-.75-.18-1.31-.18h-.55v2.51h.88Z"/>
</svg>