<?xml version="1.0" encoding="UTF-8"?>
<svg id="Layer_1" data-name="Layer 1" xmlns="http://www.w3.org/2000/svg" viewBox="0 0 894.04 112.07">
  <defs>
    <style>
      .cls-1 {
        fill: #373533;
      }
    </style>
  </defs>
  <path class="cls-1" d="M46.41,50.53c-3.42-1.23-7.74-2.38-12.96-3.44-3.39-.7-5.98-1.32-7.78-1.85s-3.32-1.3-4.55-2.33c-1.24-1.02-1.85-2.38-1.85-4.07,0-2.19.85-3.95,2.54-5.29,1.69-1.34,4.16-2.01,7.41-2.01,3.88,0,6.98.9,9.31,2.7s3.92,4.64,4.76,8.52l15.13-3.6c-1.62-6.84-4.96-11.99-10-15.45-5.05-3.46-11.45-5.19-19.21-5.19-5.29,0-9.97.9-14.02,2.7-4.06,1.8-7.2,4.3-9.42,7.51-2.22,3.21-3.33,6.93-3.33,11.17,0,5.01,1.2,8.94,3.6,11.8,2.4,2.86,5.27,4.87,8.63,6.03,3.35,1.16,7.6,2.28,12.75,3.33,3.39.71,6.09,1.36,8.1,1.96,2.01.6,3.67,1.48,4.97,2.65,1.3,1.16,1.96,2.74,1.96,4.71,0,2.33-.99,4.2-2.96,5.61-1.98,1.41-4.59,2.12-7.83,2.12-4.44,0-8.1-1.04-10.95-3.12-2.86-2.08-4.92-5.27-6.19-9.58l-14.5,4.97c2.12,6.92,5.82,12.1,11.11,15.56,5.29,3.46,12.06,5.19,20.32,5.19s15.2-1.89,20.21-5.66c5.01-3.77,7.51-9.15,7.51-16.14,0-5.29-1.27-9.44-3.81-12.44-2.54-3-5.52-5.11-8.94-6.35Z"/>
  <path class="cls-1" d="M109.48,35.72c-4.27-2.29-9.05-3.44-14.34-3.44s-10.07,1.15-14.34,3.44c-4.27,2.29-7.66,5.66-10.16,10.11-2.51,4.44-3.76,9.81-3.76,16.09s1.25,11.64,3.76,16.09c2.5,4.44,5.89,7.8,10.16,10.05,4.27,2.26,9.05,3.39,14.34,3.39s10.07-1.13,14.34-3.39c4.27-2.26,7.64-5.61,10.11-10.05,2.47-4.44,3.7-9.81,3.7-16.09s-1.24-11.64-3.7-16.09c-2.47-4.44-5.84-7.81-10.11-10.11ZM104.08,73.5c-2.15,2.58-5.13,3.86-8.94,3.86s-6.88-1.29-9-3.86c-2.12-2.57-3.17-6.44-3.17-11.59s1.06-9.03,3.17-11.64c2.12-2.61,5.11-3.92,9-3.92s6.88,1.31,9,3.92c2.12,2.61,3.17,6.49,3.17,11.64s-1.08,9.01-3.23,11.59Z"/>
  <path class="cls-1" d="M184.46,33.65h-15.87v30.69c0,4.16-.97,7.27-2.91,9.31-1.94,2.05-4.5,3.07-7.67,3.07-2.96,0-5.19-.86-6.67-2.59-1.48-1.73-2.22-4.21-2.22-7.46v-33.02h-15.87v35.56c0,7.48,1.69,13.05,5.08,16.72,3.39,3.67,8.11,5.5,14.18,5.5,4.51,0,8.34-1.22,11.48-3.65,2.37-1.84,4.21-4.26,5.52-7.25h.15c0,3.39.14,6.56.42,9.52h14.82c-.28-3.67-.42-7.87-.42-12.59v-43.81Z"/>
  <rect class="cls-1" x="199.28" y="13.23" width="15.87" height="76.83"/>
  <path class="cls-1" d="M236.84,17.62c-2.89,2.93-4.34,7-4.34,12.22v5.5h-7.94v13.23h7.94v41.49h15.87v-41.49h10.58v-13.23h-11.01v-4.44c0-1.55.33-2.68,1.01-3.39.67-.7,1.64-1.06,2.91-1.06h7.09v-13.23h-9.84c-5.29,0-9.38,1.47-12.28,4.39Z"/>
  <path class="cls-1" d="M317.8,33.65h-15.87v30.69c0,4.16-.97,7.27-2.91,9.31-1.94,2.05-4.5,3.07-7.67,3.07-2.96,0-5.19-.86-6.67-2.59-1.48-1.73-2.22-4.21-2.22-7.46v-33.02h-15.87v35.56c0,7.48,1.69,13.05,5.08,16.72,3.39,3.67,8.11,5.5,14.18,5.5,4.51,0,8.34-1.22,11.48-3.65,2.37-1.84,4.21-4.26,5.52-7.25h.15c0,3.39.14,6.56.42,9.52h14.82c-.28-3.67-.42-7.87-.42-12.59v-43.81Z"/>
  <rect class="cls-1" x="332.62" y="13.23" width="15.87" height="76.83"/>
  <path class="cls-1" d="M436.44,57.31c-1.86-1.36-4.12-2.41-6.77-3.16,1.71-.63,3.2-1.42,4.49-2.35,4.06-2.93,6.09-7.11,6.09-12.54,0-6-1.99-10.72-5.98-14.18-3.99-3.46-10.53-5.19-19.63-5.19h-30.9v70.16h33.34c8.96,0,15.45-1.76,19.47-5.29,4.02-3.53,6.03-8.36,6.03-14.5,0-5.64-2.05-9.96-6.14-12.96ZM413.05,32.17c3.74,0,6.38.72,7.94,2.17,1.55,1.45,2.33,3.51,2.33,6.19s-.78,4.75-2.33,6.19c-1.55,1.45-4.2,2.17-7.94,2.17h-12.59v-16.72h12.59ZM423.21,75.51c-1.62,1.52-4.41,2.28-8.36,2.28h-14.39v-17.36h14.39c3.95,0,6.74.74,8.36,2.22,1.62,1.48,2.43,3.6,2.43,6.35s-.81,4.99-2.43,6.51Z"/>
  <path class="cls-1" d="M475.86,36.09c-2.47,2-4.21,4.61-5.21,7.83h-.24c0-3.88-.14-7.3-.42-10.27h-14.82c.28,3.74.42,7.94.42,12.59v43.81h15.87v-28.26c0-4.87,1.15-8.36,3.44-10.48,2.29-2.12,5.7-3.17,10.21-3.17h3.17v-15.87h-1.38c-4.23,0-7.92,1.27-11.06,3.81Z"/>
  <path class="cls-1" d="M542.69,77.89c-.64-.63-.95-1.62-.95-2.96v-18.41c0-7.2-2.05-13.03-6.14-17.51-4.09-4.48-10.05-6.72-17.89-6.72-7.41,0-13.25,1.73-17.51,5.19-4.27,3.46-6.9,7.94-7.88,13.44l13.97,2.96c.7-5.78,4.2-8.68,10.48-8.68,3.39,0,5.89.94,7.51,2.8,1.24,1.43,2.01,3.42,2.3,5.95l-15.42,3.2c-6.84,1.34-11.77,3.55-14.76,6.61-3,3.07-4.5,6.93-4.5,11.59s1.66,8.59,4.97,11.59c3.32,3,7.8,4.5,13.44,4.5,4.66,0,8.64-1.16,11.96-3.49,2.9-2.04,4.86-4.86,5.87-8.47h.16v1.27c0,3.03,1.01,5.45,3.02,7.25,2.01,1.8,4.74,2.7,8.2,2.7s6.38-.81,9-2.43v-9.74c-.99.14-1.98.25-2.96.32-1.27,0-2.22-.32-2.86-.95ZM520.41,77.94c-1.87,1.02-3.86,1.53-5.98,1.53-2.26,0-4.02-.53-5.29-1.59-1.27-1.06-1.91-2.5-1.91-4.34s.58-3.24,1.75-4.44c1.16-1.2,3.05-2.05,5.66-2.54l12.06-2.39v1.12c0,3.25-.58,5.91-1.75,7.99-1.16,2.08-2.68,3.63-4.55,4.66Z"/>
  <path class="cls-1" d="M589.25,32.28c-4.52,0-8.4,1.2-11.64,3.6-2.52,1.86-4.42,4.37-5.7,7.51h-.01c0-3.53-.14-6.77-.42-9.74h-14.82c.28,3.88.42,8.08.42,12.59v43.81h15.87v-30.58c0-4.16,1.01-7.27,3.02-9.31,2.01-2.05,4.64-3.07,7.88-3.07,3.03,0,5.31.85,6.83,2.54,1.52,1.69,2.28,4.2,2.28,7.51v32.91h15.87v-35.45c0-7.48-1.75-13.07-5.24-16.77-3.49-3.7-8.27-5.56-14.34-5.56Z"/>
  <path class="cls-1" d="M674.55,13.23h-15.87v21.06c0,2.61.11,5.36.32,8.25h-.08c-.97-2.32-2.34-4.26-4.1-5.82-3.35-2.96-7.5-4.44-12.43-4.44-4.38,0-8.31,1.11-11.8,3.33-3.49,2.22-6.24,5.57-8.25,10.05-2.01,4.48-3.02,9.9-3.02,16.24s1,11.75,3.02,16.19,4.76,7.78,8.25,10c3.49,2.22,7.42,3.33,11.8,3.33,4.94,0,9.08-1.46,12.43-4.39,2.06-1.8,3.57-4.11,4.55-6.93h.15c0,3.6.14,6.92.42,9.95h15.03c-.28-4.51-.42-8.71-.42-12.59V13.23ZM646.82,77.04c-3.74,0-6.58-1.27-8.52-3.81-1.94-2.54-2.91-6.31-2.91-11.32s.97-8.69,2.91-11.27c1.94-2.57,4.78-3.86,8.52-3.86s6.56,1.29,8.68,3.86c2.12,2.58,3.17,6.33,3.17,11.27s-1.06,8.78-3.17,11.32c-2.12,2.54-5.01,3.81-8.68,3.81Z"/>
  <path class="cls-1" d="M704.66,11.8c-1.87-1.59-4.29-2.38-7.25-2.38s-5.29.79-7.2,2.38c-1.91,1.59-2.86,3.76-2.86,6.51s.95,5.05,2.86,6.67c1.9,1.62,4.3,2.43,7.2,2.43s5.38-.81,7.25-2.43c1.87-1.62,2.8-3.84,2.8-6.67s-.94-4.92-2.8-6.51Z"/>
  <rect class="cls-1" x="689.47" y="33.65" width="15.87" height="56.41"/>
  <path class="cls-1" d="M752.33,32.28c-4.52,0-8.4,1.2-11.64,3.6-2.52,1.86-4.42,4.37-5.7,7.51h-.01c0-3.53-.14-6.77-.42-9.74h-14.82c.28,3.88.42,8.08.42,12.59v43.81h15.87v-30.58c0-4.16,1.01-7.27,3.02-9.31,2.01-2.05,4.64-3.07,7.88-3.07,3.03,0,5.31.85,6.83,2.54,1.52,1.69,2.28,4.2,2.28,7.51v32.91h15.87v-35.45c0-7.48-1.75-13.07-5.24-16.77-3.49-3.7-8.27-5.56-14.34-5.56Z"/>
  <path class="cls-1" d="M831.49,82.12c-4.52-2.68-11.96-4.02-22.33-4.02-2.89,0-4.96-.32-6.19-.95-1.24-.63-1.85-1.62-1.85-2.96s.55-2.34,1.64-3.02c1.09-.67,2.91-1.01,5.45-1.01,7.83,0,13.86-1.69,18.1-5.08,4.23-3.39,6.35-8.01,6.35-13.86s-2.07-10.35-6.19-13.73c.5-.19,1.01-.36,1.53-.51,2.33-.67,5.22-1.01,8.68-1.01v-12.17c-5.65,0-9.95,1.08-12.91,3.23-2.17,1.58-3.79,3.78-4.87,6.6-3.08-.9-6.65-1.36-10.69-1.36-7.9,0-13.97,1.69-18.2,5.08-4.23,3.39-6.35,8.01-6.35,13.86s2.12,10.48,6.35,13.86c1.49,1.19,3.22,2.17,5.16,2.95-1.77.38-3.24.88-4.42,1.5-3.11,1.62-4.66,3.95-4.66,6.98,0,2.68,1.39,4.87,4.18,6.56,1.07.65,2.36,1.17,3.88,1.57-1.21.19-2.33.4-3.35.65-4.06.99-6.93,2.45-8.63,4.39-1.69,1.94-2.54,4.43-2.54,7.46,0,4.87,2.43,8.57,7.3,11.11,4.87,2.54,12.21,3.81,22.01,3.81s17.41-1.45,22.17-4.34c4.76-2.89,7.14-7.2,7.14-12.91s-2.26-10.02-6.77-12.7ZM800.91,45.19c1.69-1.41,4.13-2.12,7.3-2.12s5.41.71,7.14,2.12c1.73,1.41,2.59,3.42,2.59,6.03s-.87,4.64-2.59,6.09c-1.73,1.45-4.11,2.17-7.14,2.17s-5.61-.72-7.3-2.17c-1.69-1.45-2.54-3.47-2.54-6.09s.85-4.62,2.54-6.03ZM820.38,99.96c-2.19,1.02-6,1.53-11.43,1.53s-9.26-.53-11.48-1.59c-2.22-1.06-3.33-2.54-3.33-4.44,0-2.12,1.11-3.69,3.33-4.71,2.22-1.02,6.05-1.53,11.48-1.53s9.24.51,11.43,1.53c2.19,1.02,3.28,2.59,3.28,4.71,0,1.97-1.09,3.47-3.28,4.5Z"/>
  <path class="cls-1" d="M890.7,12.96c-2.22-4.13-5.38-7.32-9.47-9.58-4.09-2.26-8.89-3.39-14.39-3.39s-10.3,1.13-14.39,3.39c-4.09,2.26-7.25,5.45-9.47,9.58-2.22,4.13-3.33,8.91-3.33,14.34s1.11,10.21,3.33,14.34c2.22,4.13,5.38,7.32,9.47,9.58,4.09,2.26,8.89,3.39,14.39,3.39s10.3-1.13,14.39-3.39c4.09-2.26,7.25-5.45,9.47-9.58,2.22-4.13,3.33-8.91,3.33-14.34s-1.11-10.21-3.33-14.34ZM882.66,43.44c-3.92,3.92-9.19,5.87-15.82,5.87s-11.91-1.96-15.82-5.87c-3.92-3.92-5.87-9.29-5.87-16.14s1.96-12.22,5.87-16.14c3.92-3.92,9.19-5.87,15.82-5.87s11.91,1.96,15.82,5.87c3.92,3.92,5.87,9.3,5.87,16.14s-1.96,12.22-5.87,16.14Z"/>
  <path class="cls-1" d="M877.63,34.08c-.64-2.47-1.47-4.13-2.49-4.97-.36-.3-.8-.54-1.31-.73,1.2-.33,2.2-.8,3.01-1.44,1.66-1.3,2.49-3.09,2.49-5.34,0-2.61-.86-4.66-2.59-6.14-1.73-1.48-4.6-2.22-8.62-2.22h-12.49v28.04h7.09v-10.48h3.81c1.27,0,2.17.32,2.7.95.53.63,1.01,1.8,1.43,3.49.63,3.03,1.2,5.05,1.69,6.03h7.62v-.11c-.35-.49-.72-1.34-1.11-2.54-.39-1.2-.79-2.72-1.22-4.55ZM862.71,25.72v-6.98h4.97c2.96,0,4.45,1.16,4.45,3.49,0,1.13-.35,1.99-1.06,2.59-.71.6-1.84.9-3.39.9h-4.97Z"/>
</svg>